<?xml version="1.0" encoding="utf-8"?>
<!-- Generator: Adobe Illustrator 16.0.0, SVG Export Plug-In . SVG Version: 6.00 Build 0)  -->
<!DOCTYPE svg PUBLIC "-//W3C//DTD SVG 1.1//EN" "http://www.w3.org/Graphics/SVG/1.1/DTD/svg11.dtd">
<svg version="1.1" id="Layer_1" xmlns="http://www.w3.org/2000/svg" xmlns:xlink="http://www.w3.org/1999/xlink" x="0px" y="0px"
	 width="535.267px" height="81.1px" viewBox="0 0 535.267 81.1" enable-background="new 0 0 535.267 81.1" xml:space="preserve">
<path fill="#111111" d="M49.065,59.527V56.77c1.379,0,3.894-0.243,5.271-1.378c1.298-1.217,1.622-6.894,1.622-19.059
	c0-6.245-1.946-9.57-6.325-9.57c-5.353,0-10.138,3.974-10.138,9.326v9.651c0,6.975,0.243,8.597,1.054,9.57
	c0.974,1.216,2.92,1.459,5.109,1.459v2.758H25.547V56.77c1.541,0,3.406-0.243,4.784-1.378c1.217-1.217,1.379-2.92,1.379-15.166
	v-3.649c0-6.488-1.216-9.813-6.001-9.813s-10.057,4.299-10.057,8.435V45.74c0,6.975,0.324,8.597,1.055,9.57
	c0.973,1.216,2.595,1.459,5.515,1.459v2.758H0V56.77c1.784,0,4.704-0.243,6.082-1.378c1.298-1.217,1.622-2.19,1.622-9.003v-9.245
	c0-4.217,0.081-6.569-1.216-7.866c-0.974-0.893-3.812-1.866-5.434-2.19v-1.865c3.893-0.729,11.759-2.514,13.868-4.055l1.135,0.567
	l-0.405,6.65l0.486,0.243c2.758-2.757,8.678-7.137,13.787-7.137c4.542,0,9.002,1.784,9.408,7.137
	c2.676-2.595,8.028-7.137,13.625-7.137c7.137,0,11.029,4.461,11.029,13.139c0,3.568-0.162,11.759-0.405,18.652
	c0,0.893,0.081,1.622,0.486,2.109c1.055,0.973,3.487,1.378,6.326,1.378v2.758H49.065z"/>
<path fill="#111111" d="M97.52,33.737c0-4.46-2.189-7.785-7.218-7.785c-4.785,0-6.082,1.784-6.082,3.812
	c0,1.135,0.892,1.541,0.892,3.001c0,1.703-1.541,2.757-3.082,2.757c-3.081,0-5.677-1.622-5.677-4.136
	c0-2.839,6.65-10.219,18.815-10.219c6.569,0,9.976,3.568,9.976,8.597c0,2.676-0.325,15.571-0.325,21.572
	c0,3.73,1.703,5.19,3.65,5.19c0.892,0,2.271-0.324,3.081-0.729l0.568,2.189c-3.082,2.027-6.812,3.406-8.678,3.406
	c-2.758,0-5.597-3.163-6.245-5.596c-7.866,5.028-9.407,5.758-13.139,5.758c-4.703,0-9.407-4.704-9.407-9.407
	c0-4.866,3.082-7.462,5.758-8.435c3.568-1.46,14.193-4.542,17.112-6.002V33.737z M97.195,42.01
	c-2.352-0.162-8.921,1.946-10.948,3.487s-2.92,2.92-2.92,5.19c0,3.487,2.92,5.434,5.596,5.434c2.434,0,5.109-1.541,6.894-3.73
	c1.298-1.703,1.703-3.73,1.703-9.732L97.195,42.01z"/>
<path fill="#111111" d="M150.655,44.686c0,6.164,0.487,9.246,1.784,10.3c0.893,0.568,2.677,0.73,5.271,0.568v2.027
	c-3.893,0.729-10.381,2.595-12.813,3.568c-1.298-1.217-1.784-3.325-1.784-5.19l-0.974-0.081c-3.974,2.676-8.678,5.353-12.408,5.353
	c-8.272,0-15.733-8.11-15.733-17.599c0-14.111,10.462-22.141,20.438-22.141c2.92,0,6.163,0.729,7.704,1.136l0.73-0.649v-2.919
	c0-9.327-0.243-10.057-1.703-11.111c-1.217-0.973-4.056-1.784-7.461-2.189V3.812c4.946-0.649,12.246-1.865,16.463-3.812l1.217,1.216
	c-0.324,3.325-0.73,14.842-0.73,30.251V44.686z M142.221,28.385c-0.567-1.622-1.703-3.406-6.812-3.406
	c-6.163,0-12.732,4.542-12.732,15.328c0,8.84,5.434,14.436,11.436,14.436c3,0,5.271-0.486,7.299-3.082
	c0.648-0.892,1.622-3.487,1.622-11.759C143.032,34.224,142.87,30.007,142.221,28.385z"/>
<path fill="#111111" d="M168.527,39.333l-0.486,0.568c-0.648,9.488,7.056,14.922,14.598,14.922c3.894,0,6.407-1.541,9.489-4.622
	l2.189,1.865c-4.217,5.677-10.462,9.488-15.409,9.488c-13.057,0-19.302-10.786-19.302-18.572c0-16.058,11.841-21.491,19.059-21.491
	c12.408,0,15.004,6.812,15.328,15.247l-1.703,1.946L168.527,39.333z M184.099,35.765c1.622,0,2.108-0.648,2.108-3.082
	c0-3-1.621-7.704-7.461-7.704c-6.082,0-9.569,5.677-10.138,10.219l0.406,0.567H184.099z"/>
<path fill="#111111" d="M234.57,13.706c-0.568-0.893-1.379-1.947-2.515-1.947c-5.353,0-8.759,4.461-8.759,9.003
	c0,3.325,1.379,6.001,3.649,7.056c2.434-0.568,4.137-0.73,5.353-0.73c2.434,0,3.001,1.217,3.001,2.839s-1.135,3.325-3.812,3.325
	c-1.46,0-3.325-0.568-5.677-1.865c-3.975,0.729-7.948,3.568-7.948,8.84c0,8.678,8.435,14.111,20.356,14.111
	c11.841,0,21.41-4.38,21.41-14.111c0-3.812-1.703-6.326-4.703-7.786c-1.785-0.729-3.001-1.216-6.326-1.216
	c-3.001,0-4.299,1.541-4.299,3.162c0,1.217,0.73,2.434,1.947,3.244c1.946,1.298,2.352,2.271,2.352,3.975
	c0,1.946-2.189,3.244-4.299,3.244c-1.946,0-4.46-2.109-4.46-7.705c0-6.163,5.353-11.436,12.084-11.436
	c5.353,0,9.812,1.866,13.219,1.866c3.894,0,6.569-1.947,6.569-5.354c0-1.784-1.298-2.838-3.001-3.406c-1.54-0.486-3-2.189-3-4.055
	c0-1.703,1.379-3.974,4.379-3.974c3.163,0,5.515,3.244,5.515,7.866c0,10.706-7.704,15.085-16.22,13.949l-0.162,0.244
	c1.784,1.459,4.38,4.379,4.38,9.975c0,10.787-9.246,18.734-28.872,18.734c-11.517,0-23.195-5.028-23.195-17.842
	c0-7.218,5.271-12.57,11.598-14.518v-0.243c-2.514-1.865-4.217-4.622-4.217-9.164c0-6.001,5.109-13.22,15.814-13.22
	c7.056,0,9.731,2.109,9.731,6.002c0,2.352-2.271,4.379-4.946,4.379C237.652,16.949,236.03,15.977,234.57,13.706z"/>
<path fill="#111111" d="M288.093,78.991l-0.243-2.757c4.38-0.487,5.597-1.055,6.488-2.19c1.055-1.297,1.298-3.325,1.298-13.868
	V40.307c0-8.516-0.324-11.029-1.622-12.165c-0.974-1.055-3.163-1.703-6.326-1.703v-2.515c5.596-0.405,11.517-1.703,14.599-3.081
	c0.567,1.459,0.973,4.379,0.892,5.596l1.055,0.081c3.325-2.271,6.569-4.785,10.3-4.785c10.462,0,17.761,6.407,17.761,20.194
	c0,10.057-10.543,18.978-19.788,18.978c-2.596,0-5.921-0.162-8.922-1.055v2.758c0,6.082,0.081,9.812,1.622,11.597
	c1.217,1.541,4.137,1.947,7.948,2.109v2.676H288.093z M304.07,52.229c0.567,1.622,4.136,4.46,9.326,4.46
	c5.028,0,10.057-4.298,10.057-13.138c0-9.327-4.704-15.977-12.489-15.977c-2.758,0-5.109,1.135-6.407,3.406
	c-0.486,0.892-1.298,3.812-1.298,11.921C303.259,48.741,303.502,50.363,304.07,52.229z"/>
<path fill="#111111" d="M360.092,33.737c0-4.46-2.189-7.785-7.218-7.785c-4.785,0-6.082,1.784-6.082,3.812
	c0,1.135,0.892,1.541,0.892,3.001c0,1.703-1.541,2.757-3.082,2.757c-3.081,0-5.677-1.622-5.677-4.136
	c0-2.839,6.65-10.219,18.815-10.219c6.569,0,9.976,3.568,9.976,8.597c0,2.676-0.325,15.571-0.325,21.572
	c0,3.73,1.703,5.19,3.65,5.19c0.892,0,2.271-0.324,3.081-0.729l0.568,2.189c-3.082,2.027-6.812,3.406-8.678,3.406
	c-2.758,0-5.597-3.163-6.245-5.596c-7.866,5.028-9.407,5.758-13.139,5.758c-4.703,0-9.407-4.704-9.407-9.407
	c0-4.866,3.082-7.462,5.758-8.435c3.568-1.46,14.193-4.542,17.112-6.002V33.737z M359.768,42.01
	c-2.352-0.162-8.921,1.946-10.948,3.487s-2.92,2.92-2.92,5.19c0,3.487,2.92,5.434,5.596,5.434c2.434,0,5.109-1.541,6.894-3.73
	c1.298-1.703,1.703-3.73,1.703-9.732L359.768,42.01z"/>
<path fill="#111111" d="M402.804,59.527V56.77c1.946,0,4.46-0.243,5.677-1.378c1.46-1.217,1.784-6.894,1.784-19.059
	c0-6.245-1.784-9.57-7.461-9.57c-4.542,0-10.381,4.218-10.381,9.895v9.083c0,6.975,0.324,8.597,0.973,9.57
	c1.055,1.216,3.001,1.459,5.84,1.459v2.758h-22.303V56.77c1.622,0,4.542-0.243,5.92-1.378c1.298-1.217,1.622-2.758,1.622-9.003
	v-9.245c0-4.217,0.081-6.569-1.216-7.866c-1.217-1.136-4.218-1.866-5.435-2.19v-1.865c3.975-0.729,11.841-2.514,13.868-4.055
	l1.136,0.567l-0.405,6.65l0.486,0.243c2.515-2.676,7.624-7.137,14.354-7.137c7.3,0,11.03,4.461,11.03,13.139
	c0,3.568-0.243,11.759-0.405,18.409c0,0.893-0.081,1.703,0.486,2.353c0.811,0.973,3.244,1.378,6.245,1.378v2.758H402.804z"/>
<path fill="#111111" d="M439.962,23.762h10.543l-0.73,4.299h-10.138c-0.324,4.947-0.648,12.651-0.648,18.328
	c0,1.703,0,3.731,0.324,4.785c0.568,3.487,3.082,4.38,5.84,4.38c2.027,0,4.217-0.893,5.434-1.865l0.892,1.865
	c-2.919,2.757-7.299,5.434-12.084,5.434c-4.298,0-8.678-3.487-8.678-7.624c0-5.271,0.812-18.166,0.812-23.032v-2.108h-6.812v-1.784
	c6.65-3.893,9.731-7.786,13.3-14.354l2.434,0.567L439.962,23.762z"/>
<path fill="#111111" d="M454.42,59.527V56.77c1.622,0,4.623-0.243,5.92-1.378c1.379-1.217,1.622-2.19,1.622-9.003v-9.65
	c0-4.218,0-6.488-1.216-7.705c-1.217-1.135-4.218-1.865-5.353-2.027v-1.865c3.974-0.729,11.84-2.433,13.786-3.974l1.136,0.567
	l-0.648,7.624l0.405,0.081c2.595-4.299,9.002-8.272,13.463-8.272c2.027,0,3.406,1.622,3.649,2.92c0.567,2.271,0.324,4.946,0,6.894
	l-4.055,1.946c-1.46-3.163-3.65-5.435-6.164-5.435c-3.001,0-6.975,3.894-6.975,9.57v8.678c0,6.975,0.243,8.921,0.973,9.326
	c1.136,1.055,3.001,1.541,8.191,1.703v2.758H454.42z"/>
<path fill="#111111" d="M530.4,27.979c-1.217,1.46-2.271,4.46-4.217,8.597c-2.596,5.596-6.326,13.868-8.921,19.95
	c-1.947,4.38-5.516,14.355-7.543,18.41s-5.19,6.163-9.569,6.163c-3.975,0-6.569-2.433-6.569-6.163c0-2.433,1.541-4.38,3.812-4.38
	c2.758,0,4.542,1.46,6.488,1.46c1.379,0,2.92-0.973,3.73-2.271c2.108-3.244,3.487-6.65,3.487-8.435c0-1.379-3.001-5.839-4.623-8.921
	c-2.676-4.866-5.677-10.786-6.975-13.787c-2.189-5.028-3.325-8.272-4.703-10.138c-1.541-2.108-3.001-2.595-4.947-2.677v-2.595
	h21.005v2.514c-4.542,0.325-5.596,1.055-5.596,3.163c0,1.217,0.405,2.92,0.892,4.299c1.622,4.541,5.515,13.706,9.245,19.383
	c2.515-5.19,5.435-12.246,6.731-16.464c0.73-2.027,1.217-4.136,1.217-6.082c0-3.163-2.839-4.299-6.975-4.299v-2.514h18.896v2.433
	C533.158,25.871,531.617,26.438,530.4,27.979z"/>
</svg>
